<svg width="28" height="25" viewBox="0 0 28 25" fill="none" xmlns="http://www.w3.org/2000/svg">
<path d="M24.3858 7.87554V7.12554C24.1668 7.12554 23.9587 7.22129 23.8162 7.38765C23.6737 7.55401 23.6111 7.77435 23.6447 7.99079L24.3858 7.87554ZM26.3669 20.614L27.108 20.4988L27.108 20.4987L26.3669 20.614ZM23.5419 23.875V24.625H23.5426L23.5419 23.875ZM4.46113 23.875V23.125H4.46104L4.46113 23.875ZM1.63334 20.614L0.892246 20.4987L0.892234 20.4988L1.63334 20.614ZM3.61437 7.87554L4.35546 7.99079L4.35547 7.99071L3.61437 7.87554ZM6.44359 5.47504L6.44313 6.22504H6.44359V5.47504ZM21.5595 5.47504V6.22504H21.5596L21.5595 5.47504ZM24.3873 7.87554V8.62554C24.6063 8.62554 24.8144 8.52979 24.9569 8.36345C25.0993 8.19711 25.162 7.97679 25.1284 7.76036L24.3873 7.87554ZM23.6447 7.99079L25.6258 20.7293L27.108 20.4987L25.1269 7.76028L23.6447 7.99079ZM25.6258 20.7292C25.6716 21.0244 25.6525 21.326 25.5696 21.6134L27.0109 22.0291C27.1542 21.532 27.1874 21.0099 27.108 20.4988L25.6258 20.7292ZM25.5696 21.6134C25.4867 21.9008 25.3419 22.1677 25.1445 22.3955L26.2782 23.3777C26.6174 22.9861 26.8675 22.5262 27.0109 22.0291L25.5696 21.6134ZM25.1445 22.3955C24.947 22.6234 24.7017 22.807 24.4249 22.9331L25.0468 24.2981C25.5189 24.083 25.9391 23.7692 26.2782 23.3777L25.1445 22.3955ZM24.4249 22.9331C24.1481 23.0592 23.8466 23.1248 23.5413 23.125L23.5426 24.625C24.0617 24.6246 24.5748 24.5131 25.0468 24.2981L24.4249 22.9331ZM23.5419 23.125H4.46113V24.625H23.5419V23.125ZM4.46104 23.125C4.15551 23.1251 3.85382 23.0597 3.57674 22.9337L2.95582 24.2992C3.42832 24.514 3.94182 24.6251 4.46122 24.625L4.46104 23.125ZM3.57674 22.9337C3.29968 22.8077 3.05407 22.6242 2.85642 22.3963L1.72315 23.379C2.0627 23.7706 2.48331 24.0843 2.95582 24.2992L3.57674 22.9337ZM2.85642 22.3963C2.6588 22.1684 2.51375 21.9014 2.43072 21.6139L0.989586 22.03C1.13317 22.5273 1.38359 22.9874 1.72315 23.379L2.85642 22.3963ZM2.43072 21.6139C2.3477 21.3263 2.32853 21.0246 2.37444 20.7292L0.892234 20.4988C0.812753 21.0102 0.845993 21.5326 0.989586 22.03L2.43072 21.6139ZM2.37443 20.7293L4.35546 7.99079L2.87327 7.76028L0.892246 20.4987L2.37443 20.7293ZM4.35547 7.99071C4.43154 7.50125 4.68247 7.05326 5.06497 6.72873L4.09452 5.58495C3.43903 6.14111 3.00502 6.91254 2.87326 7.76036L4.35547 7.99071ZM5.06497 6.72873C5.44765 6.40403 5.9365 6.22473 6.44313 6.22504L6.44405 4.72504C5.58337 4.72452 4.74982 5.02895 4.09452 5.58495L5.06497 6.72873ZM6.44359 6.22504H21.5595V4.72504H6.44359V6.22504ZM21.5596 6.22504C22.066 6.22498 22.5546 6.4044 22.9371 6.72907L23.9078 5.58553C23.2529 5.02957 22.4198 4.72494 21.5594 4.72504L21.5596 6.22504ZM22.9371 6.72907C23.3193 7.05358 23.5701 7.50142 23.6462 7.99071L25.1284 7.76036C24.9967 6.91285 24.5629 6.14165 23.9078 5.58553L22.9371 6.72907ZM24.3873 7.12554H24.3858V8.62554H24.3873V7.12554ZM10.3419 5.58532C10.6835 3.28775 12.477 2.14754 14.3454 2.15003C16.2181 2.15252 18.0574 3.30525 18.4614 5.60481L19.9388 5.34527C19.3903 2.22309 16.8344 0.653338 14.3474 0.65003C11.8563 0.646715 9.32611 2.21738 8.85825 5.36477L10.3419 5.58532Z" fill="black"/>
</svg>
